<?xml version="1.0" encoding="UTF-8" standalone="no"?>
<svg
   width="200pt"
   height="200pt"
   viewBox="0 0 200 200"
   version="1.1"
   id="svg13"
   sodipodi:docname="Forte_cinema.svg"
   inkscape:export-filename="/home/boguminillo/Downloads/Forte_cinema.png"
   inkscape:export-xdpi="300"
   inkscape:export-ydpi="300"
   inkscape:version="1.1.1 (3bf5ae0d25, 2021-09-20)"
   xmlns:inkscape="http://www.inkscape.org/namespaces/inkscape"
   xmlns:sodipodi="http://sodipodi.sourceforge.net/DTD/sodipodi-0.dtd"
   xmlns="http://www.w3.org/2000/svg"
   xmlns:svg="http://www.w3.org/2000/svg">
  <defs
     id="defs17" />
  <sodipodi:namedview
     id="namedview15"
     pagecolor="#505050"
     bordercolor="#eeeeee"
     borderopacity="1"
     inkscape:pageshadow="0"
     inkscape:pageopacity="0"
     inkscape:pagecheckerboard="0"
     inkscape:document-units="pt"
     showgrid="false"
     inkscape:zoom="3.03"
     inkscape:cx="166.9967"
     inkscape:cy="133.49835"
     inkscape:window-width="1920"
     inkscape:window-height="1013"
     inkscape:window-x="0"
     inkscape:window-y="0"
     inkscape:window-maximized="1"
     inkscape:current-layer="surface1" />
  <g
     id="surface1">
    <path
       style="stroke:none;fill-rule:nonzero;fill:#000000;fill-opacity:1"
       d="M 130.179688 98.425781 C 130.0625 99.359375 129.921875 100.289063 129.765625 101.21875 C 131.679688 101.050781 133.695313 100.476563 135.976563 99.507813 C 148.917969 94.007813 158.265625 85.328125 173.027344 86.613281 C 173.246094 86.632813 173.460938 81.851563 173.027344 81.8125 C 158.785156 80.570313 148.292969 88.273438 135.976563 94.703125 C 135.347656 95.03125 134.734375 95.300781 134.132813 95.523438 C 134.128906 94.570313 134.0625 93.753906 133.886719 93.734375 C 119.640625 92.496094 109.144531 100.203125 96.832031 106.628906 C 91.972656 109.164063 87.90625 108.4375 83.980469 106.765625 C 101.003906 101.691406 120.660156 81.8125 120.65625 65.859375 C 120.65625 61.164063 118.566406 58.496094 115.277344 57.417969 C 113.539063 47.464844 100.160156 49.210938 87.984375 56.667969 C 78.289063 62.605469 68.832031 72.441406 64.074219 81.269531 C 58.890625 90.894531 58.75 100.46875 66.699219 102.472656 C 66.992188 102.890625 67.386719 103.257813 67.839844 103.582031 C 69.15625 106.292969 71.875 107.992188 76.289063 107.992188 C 76.617188 107.992188 76.945313 107.984375 77.277344 107.96875 C 78.265625 108.429688 79.230469 108.953125 80.15625 109.621094 C 85.976563 113.84375 90.34375 114.191406 96.832031 111.429688 C 108.652344 106.40625 117.480469 98.730469 130.179688 98.425781 Z M 94.382813 59.042969 C 98.300781 55.808594 103.167969 53.839844 105.296875 54.921875 C 105.980469 55.265625 106.285156 55.875 106.277344 56.648438 C 101.808594 57.046875 96.429688 59.082031 91.28125 62.238281 C 91.25 62.253906 91.222656 62.273438 91.191406 62.292969 C 92.027344 61.214844 93.109375 60.097656 94.382813 59.042969 Z M 100.425781 64.542969 C 95.597656 68.226563 90.800781 69.335938 89.59375 67.445313 C 89.332031 67.027344 89.261719 66.496094 89.363281 65.878906 C 90.828125 64.796875 92.3125 63.777344 93.808594 62.863281 C 97.960938 60.316406 102.253906 58.464844 106.15625 57.53125 C 105.636719 59.480469 103.601563 62.121094 100.425781 64.542969 Z M 102.019531 77.199219 C 97.964844 82.621094 90.957031 85.730469 87.109375 84.277344 C 83.835938 83.054688 84.105469 78.875 87.246094 74.851563 C 90.34375 70.886719 95.71875 67.71875 99.824219 67.699219 C 104.613281 67.6875 105.988281 71.894531 102.019531 77.199219 Z M 80.492188 65.699219 C 81.488281 63.429688 84.453125 60.386719 87.351563 58.671875 C 90.5 56.8125 92.660156 57.042969 91.875 59.476563 C 91.464844 60.761719 90.355469 62.320313 88.925781 63.773438 C 87.316406 64.878906 85.722656 66.085938 84.171875 67.371094 C 84.097656 67.414063 84.019531 67.457031 83.945313 67.496094 C 80.855469 69.027344 79.441406 68.113281 80.492188 65.699219 Z M 82.617188 73.300781 C 82.40625 73.867188 81.730469 74.539063 81.128906 74.785156 C 80.535156 75.03125 80.246094 74.765625 80.464844 74.210938 C 80.683594 73.65625 81.324219 73.015625 81.910156 72.761719 C 82.507813 72.5 82.828125 72.738281 82.617188 73.300781 Z M 71.570313 72.355469 C 73.644531 69.816406 76.5 67.773438 78.097656 67.765625 C 79.851563 67.761719 79.457031 70.1875 77.019531 73.222656 C 74.550781 76.296875 71.308594 78.355469 69.933594 77.84375 C 68.6875 77.371094 69.476563 74.921875 71.570313 72.355469 Z M 67.117188 89.808594 C 64.710938 91.144531 63.203125 90.484375 63.503906 88.246094 C 63.820313 85.871094 66.121094 82.394531 68.757813 80.214844 C 70.699219 78.613281 72.488281 77.988281 73.441406 78.511719 C 71.820313 80.640625 70.414063 82.78125 69.289063 84.863281 C 68.394531 86.53125 67.667969 88.191406 67.117188 89.808594 Z M 73.945313 81.390625 C 73.433594 83.21875 72.03125 85.484375 70.214844 87.351563 C 70.292969 87.199219 70.371094 87.046875 70.453125 86.894531 C 71.425781 85.089844 72.609375 83.238281 73.945313 81.390625 Z M 69.8125 90.085938 C 71.496094 86.253906 75.230469 82.546875 78.546875 81.46875 C 82.246094 80.273438 84.472656 82.59375 83.011719 87.144531 C 81.410156 92.148438 76.390625 96.90625 72.445313 97.277344 C 68.964844 97.605469 68 94.234375 69.8125 90.085938 Z M 79.019531 104.308594 C 77.707031 103.617188 76.382813 102.933594 75.015625 102.339844 C 92.847656 98.75 115.023438 77.410156 115.460938 60.25 C 116.167969 61.5 116.566406 63.085938 116.566406 65.058594 C 116.566406 81.027344 95.640625 101.179688 79.019531 104.308594 "
       id="path4" />
    <text
       xml:space="preserve"
       style="font-style:normal;font-weight:normal;font-size:30px;line-height:1.25;font-family:sans-serif;fill:#000000;fill-opacity:1;stroke:none;stroke-width:0.75"
       x="-9.8516788"
       y="149.87622"
       id="text2347"><tspan
         sodipodi:role="line"
         id="tspan2345"
         style="font-style:normal;font-variant:normal;font-weight:normal;font-stretch:normal;font-size:30px;font-family:Pacifico;-inkscape-font-specification:'Pacifico, Normal';font-variant-ligatures:normal;font-variant-caps:normal;font-variant-numeric:normal;font-variant-east-asian:normal;stroke-width:0.75;fill:#000000"
         x="-9.8516788"
         y="149.87622">Elorrieta zinemak</tspan></text>
  </g>
</svg>
