<?xml version="1.0" encoding="UTF-8" standalone="no"?>
<svg
   width="222.14958pt"
   height="99.817383pt"
   viewBox="0 0 222.14958 99.817383"
   version="1.1"
   id="svg13"
   sodipodi:docname="ElorrietaZinemak.svg"
   inkscape:export-filename="/home/boguminillo/Downloads/ElorrietaZinemak.png"
   inkscape:export-xdpi="300"
   inkscape:export-ydpi="300"
   inkscape:version="1.1.2 (0a00cf5339, 2022-02-04)"
   xmlns:inkscape="http://www.inkscape.org/namespaces/inkscape"
   xmlns:sodipodi="http://sodipodi.sourceforge.net/DTD/sodipodi-0.dtd"
   xmlns="http://www.w3.org/2000/svg"
   xmlns:svg="http://www.w3.org/2000/svg">
  <defs
     id="defs17" />
  <sodipodi:namedview
     id="namedview15"
     pagecolor="#505050"
     bordercolor="#eeeeee"
     borderopacity="1"
     inkscape:pageshadow="0"
     inkscape:pageopacity="0"
     inkscape:pagecheckerboard="0"
     inkscape:document-units="pt"
     showgrid="false"
     inkscape:zoom="2"
     inkscape:cx="257.5"
     inkscape:cy="159.5"
     inkscape:window-width="1920"
     inkscape:window-height="1044"
     inkscape:window-x="0"
     inkscape:window-y="0"
     inkscape:window-maximized="1"
     inkscape:current-layer="svg13" />
  <g
     id="surface1"
     transform="translate(8.9216788,-50.508835)">
    <path
       style="fill:#000000;fill-opacity:1;fill-rule:nonzero;stroke:none"
       d="m 130.17969,98.425781 c -0.11719,0.933594 -0.25782,1.863279 -0.41407,2.792969 1.91407,-0.16797 3.92969,-0.74219 6.21094,-1.710937 12.94141,-5.5 22.28906,-14.179688 37.05078,-12.894532 0.21875,0.01953 0.4336,-4.761718 0,-4.800781 -14.24218,-1.242187 -24.73437,6.460938 -37.05078,12.890625 -0.6289,0.328125 -1.24219,0.597656 -1.84375,0.820313 -0.004,-0.953125 -0.0703,-1.769532 -0.24609,-1.789063 -14.24609,-1.238281 -24.74219,6.468755 -37.054689,12.894535 -4.859375,2.53515 -8.925781,1.80859 -12.851562,0.13672 17.023441,-5.07422 36.679691,-24.95313 36.675781,-40.906255 0,-4.695312 -2.08984,-7.363281 -5.37891,-8.441406 -1.73828,-9.953125 -15.11718,-8.207031 -27.292965,-0.75 -9.695312,5.9375 -19.152344,15.773437 -23.910156,24.601562 -5.183594,9.625 -5.324219,19.199219 2.625,21.203129 0.292969,0.41797 0.6875,0.78515 1.140625,1.10937 1.316406,2.71094 4.035156,4.41016 8.449219,4.41016 0.328125,0 0.65625,-0.008 0.988281,-0.0234 0.988281,0.46094 1.953125,0.98438 2.878906,1.65234 5.820313,4.22266 10.1875,4.57032 16.675781,1.8086 11.820309,-5.02344 20.648439,-12.699221 33.347659,-13.003909 z M 94.382813,59.042969 c 3.917968,-3.234375 8.785157,-5.203125 10.914067,-4.121094 0.68359,0.34375 0.98828,0.953125 0.98046,1.726563 -4.46875,0.398437 -9.847652,2.433593 -14.99609,5.589843 -0.03125,0.01563 -0.05859,0.03516 -0.08984,0.05469 0.835938,-1.078125 1.917969,-2.195313 3.191407,-3.25 z m 6.042967,5.5 c -4.828124,3.683594 -9.624999,4.792969 -10.83203,2.902344 -0.261719,-0.417969 -0.332031,-0.949219 -0.230469,-1.566407 1.464844,-1.082031 2.949219,-2.101562 4.445313,-3.015625 4.152344,-2.546875 8.445316,-4.398437 12.347656,-5.332031 -0.51953,1.949219 -2.55469,4.589844 -5.73047,7.011719 z m 1.59375,12.65625 c -4.054686,5.421875 -11.062499,8.53125 -14.910155,7.078125 -3.273437,-1.222656 -3.003906,-5.402344 0.136719,-9.425781 3.097656,-3.964844 8.472656,-7.132813 12.578125,-7.152344 4.789061,-0.01172 6.164061,4.195312 2.195311,9.5 z m -21.527342,-11.5 c 0.996093,-2.269531 3.960937,-5.3125 6.859375,-7.027344 C 90.5,56.8125 92.660156,57.042969 91.875,59.476563 c -0.410156,1.285156 -1.519531,2.84375 -2.949219,4.296875 -1.609375,1.105468 -3.203125,2.3125 -4.753906,3.597656 -0.07422,0.04297 -0.152344,0.08594 -0.226562,0.125 -3.089844,1.53125 -4.503907,0.617187 -3.453125,-1.796875 z m 2.125,7.601562 c -0.210938,0.566407 -0.886719,1.238282 -1.488282,1.484375 -0.59375,0.246094 -0.882812,-0.01953 -0.664062,-0.574218 0.21875,-0.554688 0.859375,-1.195313 1.445312,-1.449219 0.597657,-0.261719 0.917969,-0.02344 0.707032,0.539062 z M 71.570313,72.355469 c 2.074218,-2.539063 4.929687,-4.582031 6.527343,-4.589844 1.753907,-0.0039 1.359375,2.421875 -1.078125,5.457031 -2.46875,3.074219 -5.710937,5.132813 -7.085937,4.621094 -1.246094,-0.472656 -0.457031,-2.921875 1.636719,-5.488281 z m -4.453125,17.453125 c -2.40625,1.335937 -3.914063,0.675781 -3.613282,-1.5625 0.316407,-2.375 2.617188,-5.851563 5.253907,-8.03125 1.941406,-1.601563 3.730468,-2.226563 4.683593,-1.703125 -1.621093,2.128906 -3.027343,4.269531 -4.152343,6.351562 -0.894532,1.667969 -1.621094,3.328125 -2.171875,4.945313 z m 6.828125,-8.417969 c -0.511719,1.828125 -1.914063,4.09375 -3.730469,5.960938 0.07813,-0.152344 0.15625,-0.304688 0.238281,-0.457032 0.972656,-1.804687 2.15625,-3.65625 3.492188,-5.503906 z M 69.8125,90.085938 c 1.683594,-3.832032 5.417969,-7.539063 8.734375,-8.617188 3.699219,-1.195312 5.925781,1.125 4.464844,5.675781 C 81.410156,92.148438 76.390625,96.90625 72.445313,97.277344 68.964844,97.605469 68,94.234375 69.8125,90.085938 Z m 9.207031,14.222652 c -1.3125,-0.6914 -2.636718,-1.375 -4.003906,-1.96875 C 92.847656,98.75 115.02344,77.410156 115.46094,60.25 c 0.70703,1.25 1.10547,2.835938 1.10547,4.808594 0,15.96875 -20.925785,36.121096 -37.546879,39.249996"
       id="path4" />
    <text
       xml:space="preserve"
       style="font-style:normal;font-weight:normal;font-size:30px;line-height:1.25;font-family:sans-serif;fill:#000000;fill-opacity:1;stroke:none;stroke-width:0.75"
       x="-9.8516788"
       y="149.87622"
       id="text2347"><tspan
         sodipodi:role="line"
         id="tspan2345"
         style="font-style:normal;font-variant:normal;font-weight:normal;font-stretch:normal;font-size:30px;font-family:Pacifico;-inkscape-font-specification:'Pacifico, Normal';font-variant-ligatures:normal;font-variant-caps:normal;font-variant-numeric:normal;font-variant-east-asian:normal;fill:#000000;stroke-width:0.75"
         x="-9.8516788"
         y="149.87622">Elorrieta zinemak</tspan></text>
  </g>
</svg>
